# xmcd
# Track frame offsets:
# 150
# 17557
# 34254
# 46311
# 57971
# 69504
# 81227
# 93946
# 110315
# 125277
# 143318
# 159346
# 175269
# 190036
# 204441
# 225192
# 239005
# 251445
#
# Disc length: 3491 seconds
# Revision: 0
# Processed by: cddbd v1.5.1PL2 Copyright (c) Steve Scherf et al.
# Submitted via: VisiTrax 2.9.10.228 - For more info visit www.synapsa.com
#
DISCID=dc0da112
DTITLE=Edmonds., Col. - Through The Years.
DYEAR=1900
DGENRE=Country
TTITLE0=Social Service Cowboy.
TTITLE1=One Who Takes Me Home., The
TTITLE2=Annie Johnson.
TTITLE3=Just Walk Away.
TTITLE4=40 Years Of Country.
TTITLE5=I'd Like To Be.
TTITLE6=Back To Marble Bar.
TTITLE7=My Old Squatters Chair.
TTITLE8=I Recall A Gypsy Woman.
TTITLE9=All I had To Do Was Walk In.
TTITLE10=A Trucker's Son.
TTITLE11=Little By Little.
TTITLE12=The Man With All The Gold.
TTITLE13=How Much Heaven
TTITLE14=No More Rattle Of The Chains.
TTITLE15=Jonsie's Ball.
TTITLE16=A Good Australian Song.
TTITLE17=Belyando River.
EXTD=
EXTT0=
EXTT1=
EXTT2=
EXTT3=
EXTT4=
EXTT5=
EXTT6=
EXTT7=
EXTT8=
EXTT9=
EXTT10=
EXTT11=
EXTT12=
EXTT13=
EXTT14=
EXTT15=
EXTT16=
EXTT17=
PLAYORDER=
